<svg width="167" height="79" viewBox="0 0 167 79" fill="none" xmlns="http://www.w3.org/2000/svg">
<path d="M27.6747 75.5282L26.055 75.4965L26.1899 68.6178L27.8096 68.6496L27.6747 75.5282ZM27.8291 67.6548L26.2094 67.623L26.3443 60.7443L27.9639 60.7761L27.8291 67.6548ZM28.2904 58.407L9.13452 58.0114L9.17334 56.0318L28.3297 56.4074L28.2904 58.407ZM51.7893 75.0209L50.1696 74.9891L50.257 70.53L51.8767 70.5618L51.7893 75.0209ZM51.9348 67.5965L50.3152 67.5648L50.4026 63.1056L52.0223 63.1374L51.9348 67.5965ZM61.2645 55.9714C61.2363 56.731 61.0241 57.3536 60.6278 57.8393C60.2451 58.3119 59.7178 58.6816 59.0457 58.9485C58.3737 59.2154 57.6098 59.4071 56.754 59.5237C55.8985 59.6269 54.9839 59.6823 54.0102 59.6899C53.0366 59.6975 52.0632 59.6918 51.09 59.6727C50.1035 59.6533 49.1307 59.6209 48.1714 59.5754C47.1987 59.5297 46.287 59.4385 45.4362 59.3018C44.5723 59.1515 43.8098 58.9298 43.1488 58.6368C42.4878 58.3438 41.9686 57.9535 41.5915 57.466C41.2145 56.9652 41.0335 56.3349 41.0484 55.575L42.4881 55.6033C42.4923 56.0701 42.7519 56.4353 43.2668 56.6987C43.7684 56.962 44.4381 57.1551 45.2758 57.2782C46.1136 57.4013 47.0454 57.4863 48.0714 57.5331C49.0843 57.5663 50.1039 57.5929 51.1304 57.6131C52.1702 57.6335 53.2035 57.6471 54.2302 57.6538C55.2439 57.6471 56.1717 57.5986 57.0136 57.5084C57.8555 57.4182 58.5322 57.2514 59.0438 57.0081C59.5553 56.7647 59.8223 56.4099 59.8448 55.9436L61.2645 55.9714ZM61.2531 53.4937L59.6734 53.4627C59.6799 53.1295 59.6584 52.869 59.6087 52.6813C59.5724 52.4939 59.475 52.3586 59.3166 52.2755C59.1582 52.1924 58.9125 52.1409 58.5795 52.121C58.2598 52.1014 57.82 52.0861 57.2601 52.0751L54.1208 52.0136C53.1209 51.994 52.4101 51.86 51.9882 51.6117C51.5663 51.3634 51.3128 51.0317 51.2276 50.6166C51.1128 51.0278 50.8398 51.3491 50.4085 51.5807C49.9772 51.8123 49.2617 51.9183 48.2619 51.8987L45.1425 51.8375C44.5959 51.8268 44.1625 51.825 43.8423 51.8321C43.5088 51.8388 43.2613 51.8807 43.0997 51.9575C42.9382 52.0344 42.8289 52.1656 42.772 52.3512C42.715 52.5368 42.6832 52.7962 42.6767 53.1294L41.097 53.0985C41.1134 52.2586 41.173 51.5997 41.2758 51.1216C41.3652 50.6433 41.5521 50.2935 41.8364 50.0724C42.1078 49.8377 42.5106 49.6989 43.0448 49.656C43.5794 49.5998 44.2932 49.5805 45.1864 49.598L47.9859 49.6529C48.7057 49.667 49.2461 49.6509 49.6071 49.6046C49.9683 49.545 50.2105 49.4364 50.3336 49.2788C50.457 49.1079 50.5218 48.8624 50.5281 48.5425L52.0078 48.5715C52.0016 48.8914 52.0567 49.1392 52.1733 49.3149C52.2768 49.477 52.5079 49.5948 52.8665 49.6685C53.212 49.7287 53.7514 49.7659 54.4846 49.7803L57.3041 49.8356C58.1972 49.8531 58.9098 49.9004 59.4417 49.9775C59.9739 50.0413 60.3709 50.1958 60.6328 50.441C60.9083 50.6731 61.0814 51.0299 61.152 51.5113C61.2359 51.9931 61.2696 52.6539 61.2531 53.4937ZM58.5118 45.3726L57.5649 45.7141C57.5464 45.3003 57.4255 45.0046 57.2022 44.8268C56.9659 44.6355 56.6478 44.5359 56.2479 44.5281L56.2256 45.6679L53.946 45.6232L53.9895 43.4036L56.2291 43.4475C56.9356 43.4613 57.4861 43.6122 57.8805 43.9C58.2883 44.188 58.4987 44.6789 58.5118 45.3726ZM48.667 45.5196L46.2875 45.473L46.3298 43.3134L48.7094 43.3601L48.667 45.5196ZM61.3555 41.1307L60.2557 41.1091L60.3 38.8495L42.6434 38.5033L42.5991 40.7629L41.4793 40.7409L41.566 36.3218L61.4421 36.7115L61.3555 41.1307ZM60.7935 33.0667L41.6375 32.6711L41.6764 30.6915L60.8327 31.0671L60.7935 33.0667ZM48.8233 27.3458L47.1836 27.3136L47.304 21.1748L48.9437 21.207L48.8233 27.3458ZM52.3627 27.4152L50.743 27.3834L50.8633 21.2446L52.483 21.2764L52.3627 27.4152ZM89.2981 60.6528L73.0158 64.6944L73.0519 62.8548L89.3346 58.7932L89.2981 60.6528Z" fill="#333333"/>
<path d="M159.216 58.946L159.216 60.5085L165.58 60.5085L165.58 58.946L159.216 58.946ZM149.017 58.946L149.017 60.5085L155.38 60.5085L155.38 58.946L149.017 58.946ZM138.817 58.946L138.817 60.5085L145.181 60.5085L145.181 58.946L138.817 58.946ZM128.618 58.946L128.618 60.5085L134.982 60.5085L134.982 58.946L128.618 58.946ZM118.419 58.946L118.419 60.5085L124.783 60.5085L124.783 58.946L118.419 58.946ZM102.538 57L104.299 57C104.404 56.4934 104.586 56.0483 104.846 55.6648C105.102 55.2812 105.414 54.9593 105.784 54.6989C106.148 54.4337 106.553 54.2348 106.998 54.1023C107.443 53.9697 107.907 53.9034 108.39 53.9034C109.271 53.9034 110.069 54.1259 110.784 54.571C111.494 55.0161 112.06 55.6719 112.481 56.5383C112.898 57.4048 113.106 58.4678 113.106 59.7273C113.106 60.9867 112.898 62.0497 112.481 62.9162C112.06 63.7827 111.494 64.4384 110.784 64.8835C110.069 65.3286 109.271 65.5511 108.39 65.5511C107.907 65.5511 107.443 65.4848 106.998 65.3523C106.553 65.2197 106.148 65.0232 105.784 64.7628C105.414 64.4976 105.102 64.1733 104.846 63.7898C104.586 63.4015 104.404 62.9564 104.299 62.4545L102.538 62.4545C102.671 63.1979 102.912 63.8632 103.262 64.4503C103.613 65.0374 104.048 65.5369 104.569 65.9489C105.09 66.3561 105.675 66.6662 106.324 66.8793C106.967 67.0923 107.656 67.1989 108.39 67.1989C109.631 67.1989 110.734 66.8958 111.7 66.2898C112.666 65.6837 113.426 64.822 113.98 63.7045C114.534 62.5871 114.811 61.2614 114.811 59.7273C114.811 58.1932 114.534 56.8674 113.98 55.75C113.426 54.6326 112.666 53.7708 111.7 53.1648C110.734 52.5587 109.631 52.2557 108.39 52.2557C107.656 52.2557 106.967 52.3622 106.324 52.5753C105.675 52.7883 105.09 53.1008 104.569 53.5128C104.048 53.92 103.613 54.4171 103.262 55.0043C102.912 55.5866 102.671 56.2519 102.538 57ZM92.669 58.946L92.669 60.5085L99.0327 60.5085L99.0327 58.946L92.669 58.946Z" fill="#333333"/>
</svg>
