<svg width="238" height="238" viewBox="0 0 238 238" fill="none" xmlns="http://www.w3.org/2000/svg">
<rect x="1" y="1" width="236" height="236" rx="49" fill="#F5D009" stroke="black" stroke-width="2"/>
<path d="M81.082 98.2029V134.482H73H72V135.482V139.405V140.405H73H81.082V159.203H73H72V160.203V164.126V165.126H73H81.082V181V182H82.082H86.0301H87.0301V181V165.126H107.747H108.747V164.126V160.203V159.203H107.747H87.0301L87.0314 140.407H123.541H124.529H125.516H125.543L125.57 140.405C147.999 139.199 166 120.724 166 98.2039V97.6664L165.995 97.6631C165.704 74.594 146.806 56 123.54 56C100.093 56 81.082 74.8855 81.082 98.2029ZM160.05 98.2029C160.05 117.854 144.116 133.901 124.513 134.482H87.0304V98.2029C87.0304 78.1592 103.358 61.9241 123.54 61.9241C143.723 61.9241 160.05 78.1602 160.05 98.2029Z" fill="black" stroke="black" stroke-width="2"/>
</svg>
